<?xml version="1.0" standalone="no"?>
<!DOCTYPE svg PUBLIC "-//W3C//DTD SVG 20010904//EN"
 "http://www.w3.org/TR/2001/REC-SVG-20010904/DTD/svg10.dtd">
<svg version="1.0" xmlns="http://www.w3.org/2000/svg"
 width="466.000000pt" height="466.000000pt" viewBox="0 0 466.000000 466.000000"
 preserveAspectRatio="xMidYMid meet">
<metadata>
Created by potrace 1.14, written by Peter Selinger 2001-2017
</metadata>
<g transform="translate(0.000000,466.000000) scale(0.100000,-0.100000)"
fill="#000000" stroke="none">
<path d="M1640 3276 c-11 -5 -22 -17 -26 -28 -3 -11 -6 -322 -6 -691 l0 -673
-680 1 c-777 0 -717 7 -719 -88 -5 -461 1 -1308 10 -1324 6 -11 21 -22 33 -25
20 -3 1313 -3 1360 1 9 0 21 15 26 34 7 20 10 274 9 697 l-2 665 681 0 682 0
0 -676 c-1 -683 1 -717 35 -720 7 -1 316 -2 687 -3 673 -1 675 -1 696 20 l21
20 -1 682 c-1 633 -2 683 -18 699 -17 16 -65 17 -700 17 l-683 0 0 683 c0 634
-1 684 -17 700 -16 16 -66 17 -693 17 -375 1 -683 -3 -695 -8z"/>
</g>
</svg>
